<?xml version="1.0" encoding="UTF-8" standalone="no"?>
<svg width="512" height="512" viewBox="0 0 512 512" fill="none" xmlns="http://www.w3.org/2000/svg">
  <rect width="512" height="512" rx="100" fill="#000000"/>
  <path d="M161.831 357.731V154.269H188.369L307.831 305.269V154.269H334.369V357.731H307.831L188.369 206.731V357.731H161.831Z" fill="white"/>
  <path d="M376.369 154.269L307.831 357.731H334.369L402.907 154.269H376.369Z" fill="#00BFFF"/>
  <path d="M109.093 154.269L177.631 357.731H151.093L82.5553 154.269H109.093Z" fill="#00BFFF"/>
  <path d="M256 120C256 109.507 264.507 101 275 101H375C385.493 101 394 109.507 394 120V120C394 130.493 385.493 139 375 139H275C264.507 139 256 130.493 256 120V120Z" fill="#00BFFF"/>
  <path d="M118 392C118 381.507 126.507 373 137 373H237C247.493 373 256 381.507 256 392V392C256 402.493 247.493 411 237 411H137C126.507 411 118 402.493 118 392V392Z" fill="#00BFFF"/>
</svg>
